<svg width="128" height="128" viewBox="0 0 128 128" fill="none" xmlns="http://www.w3.org/2000/svg">
    <path d="M112.125 53.6878H103.901C102.927 49.9141 101.443 46.3566 99.503 43.0798L105.325 37.2658C108.01 34.5793 108.002 30.2223 105.325 27.5433L100.463 22.6832C97.7701 19.9904 93.428 19.9904 90.7352 22.6832L84.9202 28.4973C81.6446 26.5637 78.0862 25.0729 74.3134 24.1062V15.8753C74.313 12.0746 71.237 9 67.4377 9H60.5624C56.7656 9 53.6871 12.0757 53.6871 15.8753V24.1062C49.9141 25.0734 46.3528 26.5642 43.0796 28.4973L37.2619 22.6832C34.5766 19.9979 30.2259 19.9911 27.5406 22.6832L22.6796 27.5445C19.9943 30.2298 19.9943 34.5805 22.6796 37.2658L28.4939 43.0798C26.5603 46.3566 25.077 49.9148 24.1024 53.6883H15.8753C12.0784 53.6883 9 56.7631 9 60.5631V67.4384C9 71.2379 12.0784 74.3125 15.8753 74.3125H24.1026C25.0765 78.0865 26.5605 81.646 28.4941 84.9216L22.6798 90.7357C19.9945 93.421 19.9906 97.7717 22.6798 100.463L27.5408 105.325C30.2261 108.01 34.5768 108.01 37.2621 105.325L43.0798 99.5024C46.3562 101.443 49.9148 102.928 53.6874 103.902V112.125C53.6874 115.925 56.7658 119 60.5626 119H67.4379C71.2375 119 74.3132 115.925 74.3132 112.125V103.9C78.0862 102.928 81.6444 101.443 84.92 99.5098L90.735 105.325C93.4278 108.01 97.7771 108.01 100.463 105.325L105.324 100.463C108.01 97.7715 108.01 93.4271 105.324 90.7355L99.5094 84.9214C101.443 81.6435 102.927 78.0865 103.901 74.3123H112.125C115.925 74.3123 119 71.23 119 67.4381V60.5629C119 56.7631 115.925 53.6878 112.125 53.6878ZM63.9999 91.4992C48.8132 91.4992 36.5002 79.1867 36.5002 63.9999C36.5002 48.8132 48.8132 36.5002 63.9999 36.5002C79.1871 36.5002 91.4997 48.8132 91.4997 63.9999C91.4997 79.1867 79.1873 91.4992 63.9999 91.4992Z" fill="white"/>
</svg>
