<?xml version="1.0" encoding="UTF-8" standalone="no"?>
<!DOCTYPE svg PUBLIC "-//W3C//DTD SVG 1.1//EN" "http://www.w3.org/Graphics/SVG/1.1/DTD/svg11.dtd">
<svg width="100%" height="100%" viewBox="0 0 456 456" version="1.1" xmlns="http://www.w3.org/2000/svg" xmlns:xlink="http://www.w3.org/1999/xlink" xml:space="preserve" xmlns:serif="http://www.serif.com/" style="fill-rule:evenodd;clip-rule:evenodd;stroke-linejoin:round;stroke-miterlimit:2;">
    <path d="M81.274,291.333C78.05,291.333 75.309,290.259 73.052,288.11C70.795,285.906 69.667,283.289 69.667,280.259C69.667,277.173 70.795,274.529 73.052,272.325C75.309,270.121 78.05,269.019 81.274,269.019C84.552,269.019 87.319,270.121 89.576,272.325C91.887,274.529 93.042,277.173 93.042,280.259C93.042,283.289 91.887,285.906 89.576,288.11C87.319,290.259 84.552,291.333 81.274,291.333Z" style="fill:white;fill-rule:nonzero;"/>
    <path d="M210.167,289.515L189.209,289.515L133.994,202.406C132.597,200.202 131.441,197.915 130.528,195.546L130.044,195.546C130.474,198.081 130.689,203.508 130.689,211.827L130.689,289.515L112.149,289.515L112.149,171L134.477,171L187.839,256.043C190.096,259.57 191.547,261.994 192.192,263.316L192.514,263.316C191.977,260.176 191.708,254.859 191.708,247.365L191.708,171L210.167,171L210.167,289.515Z" style="fill:white;fill-rule:nonzero;"/>
    <path d="M300.449,289.515L235.561,289.515L235.561,171L297.87,171L297.87,187.695L254.746,187.695L254.746,221.249L294.485,221.249L294.485,237.861L254.746,237.861L254.746,272.903L300.449,272.903L300.449,289.515Z" style="fill:white;fill-rule:nonzero;"/>
    <path d="M392.667,187.695L359.457,187.695L359.457,289.515L340.272,289.515L340.272,187.695L307.143,187.695L307.143,171L392.667,171L392.667,187.695Z" style="fill:white;fill-rule:nonzero;"/>
</svg>
