<?xml version="1.0" encoding="UTF-8" standalone="no"?>
<svg
   width="40"
   height="40"
   version="1.1"
   viewBox="0 0 40 40"
   id="svg407"
   sodipodi:docname="menu_entry_settings_40.svg"
   inkscape:version="1.2.2 (732a01da63, 2022-12-09)"
   xmlns:inkscape="http://www.inkscape.org/namespaces/inkscape"
   xmlns:sodipodi="http://sodipodi.sourceforge.net/DTD/sodipodi-0.dtd"
   xmlns="http://www.w3.org/2000/svg"
   xmlns:svg="http://www.w3.org/2000/svg">
  <defs
     id="defs411" />
  <sodipodi:namedview
     id="namedview409"
     pagecolor="#ffffff"
     bordercolor="#000000"
     borderopacity="0.25"
     inkscape:showpageshadow="2"
     inkscape:pageopacity="0.0"
     inkscape:pagecheckerboard="0"
     inkscape:deskcolor="#d1d1d1"
     inkscape:document-units="mm"
     showgrid="false"
     inkscape:zoom="15.75"
     inkscape:cx="14.952381"
     inkscape:cy="19.301587"
     inkscape:window-width="1920"
     inkscape:window-height="1009"
     inkscape:window-x="-8"
     inkscape:window-y="-8"
     inkscape:window-maximized="1"
     inkscape:current-layer="svg407" />
  <circle
     cx="20"
     cy="20"
     r="17.173138"
     fill="#ffffff"
     id="circle325"
     style="display:inline;stroke-width:0.18237" />
  <path
     d="m 24.703296,29.680815 c -0.174802,-0.04237 -0.44949,-0.143553 -0.610415,-0.224845 -0.379385,-0.191672 -0.976268,-0.801903 -1.148316,-1.174012 l -0.134341,-0.290572 h -5.933617 c -6.604561,0 -6.158483,0.02607 -6.466871,-0.378055 -0.12228,-0.160317 -0.14947,-0.25406 -0.14947,-0.515289 0,-0.344991 0.09234,-0.523896 0.382049,-0.740225 0.152263,-0.113688 0.191125,-0.114503 6.160854,-0.129009 l 6.007661,-0.01459 0.134,-0.289842 c 0.190613,-0.412304 0.78062,-0.996729 1.21242,-1.20093 0.774292,-0.366183 1.599502,-0.360584 2.36152,0.01603 0.473397,0.233963 0.953216,0.712614 1.182019,1.179118 l 0.145707,0.297101 h 0.600622 c 0.703184,0 0.901659,0.06395 1.13079,0.364359 0.132664,0.17393 0.15992,0.263143 0.15992,0.523495 0,0.255283 -0.02789,0.350408 -0.149473,0.5098 -0.236007,0.309411 -0.442542,0.378055 -1.137538,0.378055 h -0.604341 l -0.145709,0.2971 c -0.532906,1.086585 -1.810614,1.680074 -2.99763,1.392347 z m 0.974225,-1.765132 c 0.570164,-0.238231 0.709149,-0.985715 0.265732,-1.429112 -0.623454,-0.623453 -1.645095,-0.06503 -1.481034,0.809526 0.09801,0.522438 0.705977,0.832395 1.215284,0.619586 z M 19.37606,22.57787 C 19.201259,22.5355 18.926571,22.434316 18.765646,22.353026 18.38626,22.161372 17.789378,21.551123 17.617329,21.178995 l -0.134341,-0.290572 h -3.270092 c -3.639758,0 -3.504622,0.01344 -3.803161,-0.378055 -0.122281,-0.160315 -0.14947,-0.254042 -0.14947,-0.515288 0,-0.344991 0.09233,-0.523879 0.38203,-0.740225 0.150223,-0.112181 0.21837,-0.114708 3.497508,-0.129536 l 3.344318,-0.01512 0.133754,-0.289313 c 0.190358,-0.411775 0.780675,-0.996347 1.212164,-1.200419 0.774293,-0.366183 1.599521,-0.360585 2.361521,0.01602 0.473398,0.233963 0.953215,0.712614 1.182018,1.179119 l 0.145709,0.2971 h 3.267903 c 3.637387,0 3.502616,-0.01342 3.801157,0.378054 0.121581,0.159402 0.149473,0.254517 0.149473,0.5098 0,0.255282 -0.02789,0.350408 -0.149473,0.509799 -0.298595,0.391477 -0.163689,0.378055 -3.801157,0.378055 h -3.267903 l -0.145709,0.297101 c -0.532906,1.086585 -1.810614,1.680073 -2.997629,1.392347 z m 0.974225,-1.765132 c 0.570146,-0.23823 0.70915,-0.985695 0.265733,-1.42911 -0.359945,-0.359946 -0.873922,-0.359946 -1.233866,0 -0.686244,0.686242 0.07095,1.803975 0.968133,1.42911 z m -6.30146,-5.337811 c -0.174802,-0.04237 -0.44949,-0.143556 -0.610415,-0.224845 -0.379386,-0.191654 -0.976268,-0.801903 -1.148315,-1.174031 l -0.134342,-0.290572 h -0.606402 c -0.69724,0 -0.903428,-0.0684 -1.139616,-0.378054 -0.195466,-0.256268 -0.212973,-0.749564 -0.03506,-0.987867 0.254624,-0.341033 0.363445,-0.380536 1.102815,-0.400304 l 0.682357,-0.01825 0.132299,-0.286212 c 0.188844,-0.40853 0.780894,-0.994013 1.210704,-1.197303 0.774292,-0.366182 1.599502,-0.360583 2.36152,0.01603 0.473381,0.233964 0.953217,0.712614 1.182019,1.179118 l 0.145707,0.297101 h 5.931614 c 6.602189,0 6.156475,-0.02607 6.464682,0.378055 0.213482,0.279902 0.213482,0.739714 0,1.019617 -0.308244,0.404117 0.137489,0.378055 -6.464682,0.378055 h -5.931614 l -0.145707,0.2971 c -0.532905,1.086584 -1.810614,1.680074 -2.99763,1.392348 z m 0.974225,-1.765132 c 0.570145,-0.238231 0.709149,-0.985696 0.265732,-1.429112 -0.359945,-0.359946 -0.873921,-0.359946 -1.233867,0 -0.686242,0.686243 0.07095,1.803976 0.968135,1.429112 z"
     stroke-width="0.0146822"
     id="path399"
     style="display:inline" />
</svg>
